<svg id="Режим_изоляции" data-name="Режим изоляции" xmlns="http://www.w3.org/2000/svg" viewBox="0 0 208.7 90.18">
    <path d="M147.21,0h-25V25h25V0Z" fill="#cc1719" fill-rule="evenodd"/>
    <path d="M78.77,31H66.22V43.5H78.77V31ZM160.25,20V35c0,6.32,3.12,9.28,7.92,9.28,3.63,0,5.78-.84,8-3.88v3.25h8.15V20h-8.78V32.15c0,3.42-.8,5.32-3.33,5.32-2.11,0-3.16-1-3.16-4V20ZM208.7,39.52h-18V13.65H154.75v36h12V81.49h9.57V50.08h8.11v3.38h.09c1.26-2.78,4.53-4,7.13-4,6.86,0,10.17,5.61,10.17,11.86,0,9-5.56,12.22-10.65,12.22a7,7,0,0,1-5.82-2.92V81.49H208.7v-42Zm-19.86,27c-2.34,0-3.69-2.16-3.69-5.33S186.63,56,188.79,56c2.39,0,4,1.77,4,5.38,0,3.13-1.52,5.16-3.91,5.16Z"
          fill="#005d77" fill-rule="evenodd"/>
    <path d="M108.52,10.18H90.46V28.24h18.06V10.18Z" fill="#1d1d1b" fill-rule="evenodd"/>
    <path d="M20.71,50.13c-3.52,0-7.92,1.7-9.62,5.45H11V51H0V90.18H12.2V78.7a9.47,9.47,0,0,0,7.86,3.94c6.87,0,14.37-4.42,14.37-16.5C34.43,57.69,30,50.13,20.71,50.13ZM17,73.3c-3.17,0-5-2.93-5-7.22,0-4.1,2-7,4.92-7,3.23,0,5.34,2.4,5.34,7.26C22.23,70.54,20.18,73.3,17,73.3Z"
          fill="#1d1d1b" fill-rule="evenodd"/>
    <path d="M50.8,51H39.71V81.75H51.92V71.13c0-6.63,2.52-9,7.5-9a19.82,19.82,0,0,1,2.52.35V50.3a13.87,13.87,0,0,0-1.58-.17c-4.75,0-7.74,2.28-9.45,7.09H50.8V51Z"
          fill="#1d1d1b" fill-rule="evenodd"/>
    <polygon points="78.31 51.09 66.11 51.09 66.11 81.75 78.31 81.75 78.31 51.09 78.31 51.09" fill="#1d1d1b"
             fill-rule="evenodd"/>
    <path d="M95.91,51H84.77V81.75H97V66.08c0-3.93,1-6.33,4.76-6.33,3.45,0,4.28,2.7,4.28,5.74V81.75h12.2V63.33c0-8.45-3.82-13.2-11.91-13.2-4.63,0-7.63,2-10.38,5.69V51Z"
          fill="#1d1d1b" fill-rule="evenodd"/>
    <path d="M126.83,41.45V51h-4.35v7h4.35V70.89c0,10.62,1.81,10.86,18,10.86V73h-1.95c-3.4,0-3.81-1-3.81-3.82V58h5.87V51H139V41.45Z"
          fill="#1d1d1b" fill-rule="evenodd"/>
</svg>